<svg width="756" height="284" viewBox="0 0 756 284" fill="none" xmlns="http://www.w3.org/2000/svg">
<path d="M595.5 0.15693C673.5 -3.04307 734.667 43.4903 755.5 67.1569C673.5 -5.24308 534.667 27.9903 475.5 53.6569C498.3 42.8569 517 28.8236 523.5 23.1569C508.167 25.1569 453.1 35.8569 355.5 62.6569C257.9 89.4569 185.167 68.8236 161 55.1569C216.6 77.5569 312.167 60.8236 353 49.6569C401.333 34.4903 517.5 3.35693 595.5 0.15693Z" fill="url(#paint0_linear_0_1)"/>
<path d="M756 80.2947C676.8 12.2947 580.333 41.2947 542 64.2947C565.2 56.6947 590.667 53.4613 600.5 52.7947C588.9 57.9947 576.667 66.2947 572 69.7947C660.4 34.9947 731.5 62.2947 756 80.2947Z" fill="url(#paint1_linear_0_1)"/>
<path d="M161.5 283.138C83.5 286.338 22.3333 239.804 1.5 216.138C83.5 288.538 222.333 255.304 281.5 229.638C258.7 240.438 240 254.471 233.5 260.138C248.833 258.138 303.9 247.438 401.5 220.638C499.1 193.838 571.833 214.471 596 228.138C540.4 205.738 444.833 222.471 404 233.638C355.667 248.804 239.5 279.938 161.5 283.138Z" fill="url(#paint2_linear_0_1)"/>
<path d="M1 203C80.2 271 176.667 242 215 219C191.8 226.6 166.333 229.833 156.5 230.5C168.1 225.3 180.333 217 185 213.5C96.6 248.3 25.5 221 1 203Z" fill="url(#paint3_linear_0_1)"/>
<path d="M75.55 177.98C73.99 179.02 71.8667 180.19 69.18 181.49C66.4933 182.79 63.33 183.873 59.69 184.74C56.1367 185.607 52.2367 186.04 47.99 186.04C40.71 185.953 34.1233 184.653 28.23 182.14C22.4233 179.627 17.4833 176.203 13.41 171.87C9.33667 167.537 6.17333 162.553 3.92 156.92C1.75333 151.2 0.670001 145.133 0.670001 138.72C0.670001 131.7 1.79667 125.243 4.05 119.35C6.39 113.37 9.64 108.213 13.8 103.88C17.96 99.46 22.8567 96.0367 28.49 93.61C34.21 91.1833 40.45 89.97 47.21 89.97C52.8433 89.97 57.9567 90.75 62.55 92.31C67.1433 93.7833 71.0867 95.56 74.38 97.64L69.31 109.34C66.71 107.607 63.5467 105.96 59.82 104.4C56.18 102.84 52.1067 102.06 47.6 102.06C43.0067 102.06 38.6733 102.97 34.6 104.79C30.5267 106.61 26.93 109.167 23.81 112.46C20.69 115.753 18.22 119.61 16.4 124.03C14.6667 128.363 13.8 133.043 13.8 138.07C13.8 143.183 14.58 147.95 16.14 152.37C17.7867 156.703 20.0833 160.473 23.03 163.68C26.0633 166.887 29.7033 169.4 33.95 171.22C38.1967 173.04 42.9633 173.95 48.25 173.95C53.0167 173.95 57.2633 173.213 60.99 171.74C64.7167 170.267 67.7933 168.62 70.22 166.8L75.55 177.98ZM90.9337 138.07C90.9337 131.57 92.147 125.46 94.5737 119.74C97.087 113.933 100.554 108.82 104.974 104.4C109.394 99.8933 114.464 96.3833 120.184 93.87C125.99 91.27 132.23 89.97 138.904 89.97C145.49 89.97 151.644 91.27 157.364 93.87C163.17 96.3833 168.284 99.8933 172.704 104.4C177.21 108.82 180.72 113.933 183.234 119.74C185.747 125.46 187.004 131.57 187.004 138.07C187.004 144.743 185.747 150.983 183.234 156.79C180.72 162.597 177.21 167.71 172.704 172.13C168.284 176.463 163.17 179.887 157.364 182.4C151.644 184.827 145.49 186.04 138.904 186.04C132.23 186.04 125.99 184.827 120.184 182.4C114.464 179.973 109.394 176.593 104.974 172.26C100.554 167.927 97.087 162.857 94.5737 157.05C92.147 151.243 90.9337 144.917 90.9337 138.07ZM103.934 138.2C103.934 143.14 104.844 147.777 106.664 152.11C108.484 156.357 110.997 160.127 114.204 163.42C117.41 166.713 121.137 169.313 125.384 171.22C129.63 173.04 134.224 173.95 139.164 173.95C144.017 173.95 148.567 173.04 152.814 171.22C157.06 169.313 160.744 166.713 163.864 163.42C166.984 160.127 169.454 156.357 171.274 152.11C173.094 147.777 174.004 143.097 174.004 138.07C174.004 133.13 173.094 128.493 171.274 124.16C169.454 119.74 166.94 115.883 163.734 112.59C160.527 109.297 156.8 106.74 152.554 104.92C148.307 103.013 143.757 102.06 138.904 102.06C133.964 102.06 129.37 103.013 125.124 104.92C120.877 106.827 117.15 109.427 113.944 112.72C110.737 116.013 108.267 119.87 106.534 124.29C104.8 128.623 103.934 133.26 103.934 138.2ZM208.249 185V91.01H233.859C243.132 91.01 251.019 92.44 257.519 95.3C264.105 98.16 269.392 101.93 273.379 106.61C277.365 111.29 280.269 116.49 282.089 122.21C283.995 127.843 284.949 133.477 284.949 139.11C284.949 146.217 283.692 152.587 281.179 158.22C278.752 163.853 275.372 168.663 271.039 172.65C266.705 176.637 261.722 179.713 256.089 181.88C250.542 183.96 244.649 185 238.409 185H208.249ZM220.859 172.91H235.939C241.139 172.91 245.905 172.13 250.239 170.57C254.659 169.01 258.472 166.757 261.679 163.81C264.972 160.863 267.529 157.267 269.349 153.02C271.169 148.687 272.079 143.79 272.079 138.33C272.079 132.523 271.125 127.453 269.219 123.12C267.312 118.7 264.712 115.017 261.419 112.07C258.125 109.123 254.399 106.913 250.239 105.44C246.079 103.88 241.702 103.1 237.109 103.1H220.859V172.91ZM306.129 91.01H367.229V103.1H318.739V131.7H362.029V143.79H318.739V172.91H369.049V185H306.129V91.01Z" fill="white"/>
<path d="M393.33 91.53H407.89L433.37 163.29L431.16 162.38L449.75 114.28L455.6 131.31L430.77 189.29L393.33 91.53ZM438.44 91.53H451.05L478.61 162.25L476.01 161.73L500.32 91.53H513.71L476.79 189.16L438.44 91.53ZM511.369 185L552.449 87.11H553.229L594.179 185H579.749L549.069 106.87L558.039 101.02L523.719 185H511.369ZM535.419 149.38H570.389L574.549 160.3H531.779L535.419 149.38ZM606.073 91.01L637.013 168.75L629.863 167.32L659.243 91.01H673.933L632.463 189.29L591.123 91.01H606.073ZM692.75 91.01H753.85V103.1H705.36V131.7H748.65V143.79H705.36V172.91H755.67V185H692.75V91.01Z" fill="white"/>
<defs>
<linearGradient id="paint0_linear_0_1" x1="161" y1="37.8497" x2="755.5" y2="37.8497" gradientUnits="userSpaceOnUse">
<stop offset="0.58" stop-color="#3D4F77"/>
<stop offset="0.735" stop-color="#9EA7BB"/>
<stop offset="0.895" stop-color="#9E9E9E"/>
</linearGradient>
<linearGradient id="paint1_linear_0_1" x1="542" y1="59.1473" x2="756" y2="59.1473" gradientUnits="userSpaceOnUse">
<stop offset="0.28" stop-color="#3D4F77"/>
<stop offset="0.635" stop-color="#9EA7BB"/>
<stop offset="1" stop-color="#9E9E9E"/>
</linearGradient>
<linearGradient id="paint2_linear_0_1" x1="596" y1="245.445" x2="1.5" y2="245.445" gradientUnits="userSpaceOnUse">
<stop offset="0.58" stop-color="#3D4F77"/>
<stop offset="0.735" stop-color="#9EA7BB"/>
<stop offset="0.895" stop-color="#9E9E9E"/>
</linearGradient>
<linearGradient id="paint3_linear_0_1" x1="215" y1="224.147" x2="1" y2="224.147" gradientUnits="userSpaceOnUse">
<stop offset="0.28" stop-color="#3D4F77"/>
<stop offset="0.635" stop-color="#9EA7BB"/>
<stop offset="1" stop-color="#9E9E9E"/>
</linearGradient>
</defs>
</svg>
