<svg width="297" height="288" viewBox="0 0 297 288" fill="none" xmlns="http://www.w3.org/2000/svg">
<path d="M250 50C170.8 -30.3884 74.3333 3.89491 36 31.0851C59.2 22.1005 84.6667 18.2781 94.5 17.49C82.9 23.6373 70.6667 33.4495 66 37.5871C154.4 -3.55284 225.5 28.7207 250 50Z" fill="url(#paint0_linear_0_1)"/>
<path d="M50 49C-30.3884 128.2 3.89491 224.667 31.0851 263C22.1005 239.8 18.2781 214.333 17.49 204.5C23.6373 216.1 33.4495 228.333 37.5871 233C-3.55284 144.6 28.7207 73.5 50 49Z" fill="url(#paint1_linear_0_1)"/>
<path d="M48 238C127.2 318.388 223.667 284.105 262 256.915C238.8 265.899 213.333 269.722 203.5 270.51C215.1 264.363 227.333 254.551 232 250.413C143.6 291.553 72.5 259.279 48 238Z" fill="url(#paint2_linear_0_1)"/>
<path d="M247 242C327.388 162.8 293.105 66.3333 265.915 28C274.899 51.2 278.722 76.6667 279.51 86.5C273.363 74.9 263.551 62.6667 259.413 58C300.553 146.4 268.279 217.5 247 242Z" fill="url(#paint3_linear_0_1)"/>
<path d="M114.55 188.98C112.99 190.02 110.867 191.19 108.18 192.49C105.493 193.79 102.33 194.873 98.69 195.74C95.1367 196.607 91.2367 197.04 86.99 197.04C79.71 196.953 73.1233 195.653 67.23 193.14C61.4233 190.627 56.4833 187.203 52.41 182.87C48.3367 178.537 45.1733 173.553 42.92 167.92C40.7533 162.2 39.67 156.133 39.67 149.72C39.67 142.7 40.7967 136.243 43.05 130.35C45.39 124.37 48.64 119.213 52.8 114.88C56.96 110.46 61.8567 107.037 67.49 104.61C73.21 102.183 79.45 100.97 86.21 100.97C91.8433 100.97 96.9567 101.75 101.55 103.31C106.143 104.783 110.087 106.56 113.38 108.64L108.31 120.34C105.71 118.607 102.547 116.96 98.82 115.4C95.18 113.84 91.1067 113.06 86.6 113.06C82.0067 113.06 77.6733 113.97 73.6 115.79C69.5267 117.61 65.93 120.167 62.81 123.46C59.69 126.753 57.22 130.61 55.4 135.03C53.6667 139.363 52.8 144.043 52.8 149.07C52.8 154.183 53.58 158.95 55.14 163.37C56.7867 167.703 59.0833 171.473 62.03 174.68C65.0633 177.887 68.7033 180.4 72.95 182.22C77.1967 184.04 81.9633 184.95 87.25 184.95C92.0167 184.95 96.2633 184.213 99.99 182.74C103.717 181.267 106.793 179.62 109.22 177.8L114.55 188.98Z" fill="white"/>
<path d="M128.33 102.53H142.89L168.37 174.29L166.16 173.38L184.75 125.28L190.6 142.31L165.77 200.29L128.33 102.53ZM173.44 102.53H186.05L213.61 173.25L211.01 172.73L235.32 102.53H248.71L211.79 200.16L173.44 102.53Z" fill="white"/>
<defs>
<linearGradient id="paint0_linear_0_1" x1="36" y1="25" x2="250" y2="25" gradientUnits="userSpaceOnUse">
<stop offset="0.28" stop-color="#3D4F77"/>
<stop offset="0.635" stop-color="#9EA7BB"/>
<stop offset="1" stop-color="#9E9E9E"/>
</linearGradient>
<linearGradient id="paint1_linear_0_1" x1="25" y1="263" x2="25" y2="49" gradientUnits="userSpaceOnUse">
<stop offset="0.28" stop-color="#3D4F77"/>
<stop offset="0.635" stop-color="#9EA7BB"/>
<stop offset="1" stop-color="#9E9E9E"/>
</linearGradient>
<linearGradient id="paint2_linear_0_1" x1="262" y1="263" x2="48" y2="263" gradientUnits="userSpaceOnUse">
<stop offset="0.28" stop-color="#3D4F77"/>
<stop offset="0.635" stop-color="#9EA7BB"/>
<stop offset="1" stop-color="#9E9E9E"/>
</linearGradient>
<linearGradient id="paint3_linear_0_1" x1="272" y1="28" x2="272" y2="242" gradientUnits="userSpaceOnUse">
<stop offset="0.28" stop-color="#3D4F77"/>
<stop offset="0.635" stop-color="#9EA7BB"/>
<stop offset="1" stop-color="#9E9E9E"/>
</linearGradient>
</defs>
</svg>
